# xmcd
#
# Track frame offsets: 
#        183
#        17528
#        44788
#        70578
#
# Disc length: 1188 seconds
#
# Revision: 0
# Processed by: cddbd v1.5.2PL0 Copyright (c) Steve Scherf et al.
# Submitted via: ExactAudioCopy v1.0b1
#
DISCID=2d04a204
DTITLE=Mix Factory - Take Me Away (Paradise) CDM
DYEAR=1993
DGENRE=Euro-House
TTITLE0=Take Me Away (Paradise) (7" Original Edit)
TTITLE1=Take Me Away (Paradise) (N-Trance 24 Hour Mix)
TTITLE2=Take Me Away (Paradise) (XTC Come Hard Mix)
TTITLE3=Take Me Away (Paradise) (Si D Mix)
EXTD=
EXTT0=
EXTT1=
EXTT2=
EXTT3=
PLAYORDER=
